<?xml version="1.0" standalone="no"?>
<!DOCTYPE svg PUBLIC "-//W3C//DTD SVG 20010904//EN"
 "http://www.w3.org/TR/2001/REC-SVG-20010904/DTD/svg10.dtd">
<svg version="1.0" xmlns="http://www.w3.org/2000/svg"
 width="436.705118pt" height="432.536165pt" viewBox="0 0 436.705118 432.536165"
 preserveAspectRatio="xMidYMid meet">
<metadata>
Created by potrace 1.16, written by Peter Selinger 2001-2019
</metadata>
<g transform="translate(-29.088098,529.727821) scale(0.100000,-0.100000)"
fill="#000000" stroke="none">
<path d="M3567 5290 c-102 -13 -221 -38 -317 -66 -96 -29 -281 -105 -323 -133
l-29 -18 109 -88 c59 -48 132 -110 162 -138 52 -50 54 -50 90 -39 20 6 74 22
121 37 254 78 541 74 684 -10 161 -94 236 -292 192 -510 -47 -233 -140 -396
-405 -705 -64 -74 -150 -176 -191 -225 -41 -50 -77 -92 -80 -95 -10 -9 -75
-86 -120 -140 -25 -29 -115 -135 -200 -235 -85 -100 -211 -249 -280 -330 -69
-82 -154 -183 -190 -225 -262 -309 -320 -380 -320 -392 1 -26 272 -208 310
-208 9 0 32 21 53 47 20 27 48 62 63 78 14 17 92 109 172 205 81 96 149 177
152 180 3 3 84 100 180 215 96 116 242 289 325 386 82 96 170 199 195 229 25
29 83 97 129 149 201 229 373 461 448 601 110 207 173 469 159 660 -29 381
-256 649 -636 747 -106 28 -329 39 -453 23z"/>
<path d="M1989 4283 c-221 -257 -257 -298 -488 -574 -237 -282 -299 -355 -521
-614 -356 -415 -458 -552 -554 -742 -115 -228 -160 -482 -122 -683 20 -104 27
-122 79 -230 150 -308 519 -492 936 -466 135 9 288 38 409 80 95 32 277 119
317 150 23 18 33 7 -86 101 -35 28 -96 78 -136 113 l-73 63 -64 -25 c-184 -74
-432 -103 -601 -72 -221 42 -362 167 -396 351 -35 186 60 465 235 695 52 69
127 162 136 170 4 3 44 50 91 105 113 136 490 578 693 815 11 14 77 93 146
175 68 83 167 200 218 260 126 148 129 151 192 225 30 35 65 76 78 90 12 13
22 30 22 36 0 18 -276 214 -301 214 -3 0 -98 -107 -210 -237z"/>
</g>
</svg>
